<svg width="512" height="512" viewBox="0 0 512 512" fill="none" xmlns="http://www.w3.org/2000/svg">
<rect width="512" height="512" fill="white"/>
<path d="M377.078 197.852C368.067 197.852 368.067 188.841 368.067 188.841L367.29 153.921C367.281 153.665 367.324 153.41 367.417 153.17C367.509 152.931 367.648 152.713 367.827 152.528C368.005 152.344 368.219 152.197 368.455 152.097C368.691 151.997 368.945 151.946 369.202 151.946L390.396 151.672C390.997 151.664 391.571 151.419 391.993 150.991C392.415 150.563 392.652 149.986 392.652 149.384V128.069C392.652 127.766 392.591 127.466 392.474 127.186C392.357 126.906 392.186 126.653 391.97 126.44C391.754 126.227 391.499 126.059 391.217 125.946C390.936 125.833 390.635 125.777 390.332 125.781L367.984 126.087C367.781 126.091 367.58 126.054 367.391 125.978C367.203 125.903 367.031 125.791 366.886 125.648C366.742 125.506 366.627 125.336 366.548 125.149C366.47 124.962 366.43 124.761 366.43 124.558V97.7177C366.43 97.111 366.189 96.5292 365.76 96.1001C365.331 95.6711 364.749 95.4301 364.142 95.4301H361.485C360.977 95.4289 360.474 95.5317 360.007 95.7322C359.54 95.9328 359.119 96.2268 358.77 96.5962L331.898 125.036C331.683 125.261 331.425 125.44 331.139 125.563C330.854 125.685 330.546 125.749 330.235 125.749H293.696C292.893 125.749 292.104 125.953 291.402 126.344C290.701 126.734 290.111 127.297 289.688 127.98L269.386 160.791C269.205 161.079 268.935 161.3 268.617 161.422C268.299 161.544 267.95 161.559 267.623 161.466C267.295 161.372 267.007 161.175 266.801 160.904C266.595 160.633 266.482 160.303 266.48 159.962V90.3386C266.48 89.7341 266.241 89.1542 265.815 88.7255C265.388 88.2969 264.81 88.0544 264.205 88.051L233.548 88C233.247 87.9992 232.949 88.0577 232.671 88.1723C232.393 88.2869 232.14 88.4553 231.927 88.6678C231.713 88.8803 231.544 89.1328 231.429 89.4107C231.314 89.6887 231.254 89.9867 231.254 90.2877V160.16C231.254 160.16 230.738 160.16 230.114 158.095C229.42 155.858 228.568 153.673 227.565 151.557C224.818 145.714 220.389 139.38 214.036 134.76C205.026 128.209 195.149 124.367 177.179 125.749C169.879 126.336 162.717 128.074 155.959 130.898C155.837 130.945 155.705 130.961 155.574 130.945C155.444 130.929 155.32 130.882 155.212 130.807C155.104 130.732 155.016 130.633 154.955 130.517C154.895 130.4 154.863 130.271 154.863 130.14V128.037C154.864 127.737 154.806 127.44 154.691 127.162C154.577 126.885 154.409 126.632 154.197 126.42C153.985 126.207 153.734 126.039 153.456 125.924C153.179 125.809 152.882 125.749 152.582 125.749H121.288C120.681 125.749 120.099 125.99 119.67 126.419C119.241 126.849 119 127.43 119 128.037V263.576C119 264.182 119.241 264.764 119.67 265.193C120.099 265.622 120.681 265.863 121.288 265.863H150.307C150.914 265.863 151.496 265.622 151.925 265.193C152.354 264.764 152.595 264.182 152.595 263.576V224.819C152.592 224.418 152.696 224.023 152.896 223.674C153.095 223.326 153.383 223.036 153.73 222.834C154.077 222.633 154.471 222.526 154.873 222.526C155.274 222.525 155.669 222.63 156.017 222.831C156.233 222.959 156.444 223.131 156.692 223.258C163.249 226.534 183.105 232.581 206.676 220.799C223.059 212.604 227.979 198.674 229.617 194.577C230.528 192.295 231.254 192.939 231.254 192.939V225.743C231.253 226.044 231.312 226.341 231.426 226.618C231.54 226.896 231.708 227.148 231.92 227.361C232.132 227.573 232.384 227.742 232.661 227.857C232.938 227.972 233.235 228.031 233.536 228.031H264.607C264.908 228.03 265.207 227.97 265.485 227.853C265.763 227.737 266.015 227.566 266.227 227.352C266.439 227.138 266.607 226.883 266.72 226.604C266.833 226.325 266.891 226.026 266.888 225.724L266.544 190.594C266.541 190.247 266.653 189.908 266.861 189.631C267.07 189.354 267.364 189.153 267.698 189.059C268.033 188.966 268.388 188.985 268.711 189.114C269.033 189.242 269.304 189.474 269.482 189.772L291.555 226.916C291.759 227.256 292.048 227.537 292.393 227.732C292.738 227.928 293.128 228.031 293.524 228.031H330.362C330.778 228.033 331.186 227.922 331.544 227.71C331.901 227.497 332.194 227.191 332.39 226.825C332.587 226.459 332.68 226.046 332.659 225.631C332.639 225.216 332.506 224.814 332.274 224.469L299.775 176.135C299.528 175.771 299.392 175.343 299.385 174.902C299.377 174.462 299.497 174.029 299.731 173.656L312.66 152.844C312.825 152.577 313.056 152.356 313.33 152.203C313.605 152.05 313.914 151.971 314.228 151.971H329.808C330.405 151.971 330.979 152.206 331.406 152.624C331.832 153.042 332.078 153.611 332.089 154.208L332.867 192.837C332.867 192.907 332.867 192.964 332.867 193.034C332.701 195.424 333.542 208.462 339.43 216.701C347.619 228.171 358.126 228.031 358.126 228.031H390.969C391.576 228.031 392.158 227.79 392.587 227.361C393.016 226.932 393.257 226.35 393.257 225.743V200.152C393.257 199.546 393.016 198.964 392.587 198.535C392.158 198.106 391.576 197.865 390.969 197.865L377.078 197.852ZM177.153 199.764C164.052 199.764 153.41 189.319 153.41 176.416C153.41 163.512 164.052 153.061 177.179 153.061C190.306 153.061 200.941 163.518 200.941 176.416C200.941 189.313 190.3 199.764 177.179 199.764H177.153Z" fill="#023DB5"/>
<path d="M150.683 420.333H120.682C120.236 420.333 119.808 420.156 119.493 419.84C119.177 419.525 119 419.097 119 418.651V292.409C118.998 292.109 119.056 291.811 119.17 291.532C119.284 291.254 119.452 291.001 119.664 290.788C119.876 290.575 120.128 290.406 120.405 290.29C120.683 290.175 120.981 290.115 121.281 290.115H172.897C187.519 290.115 198.715 293.913 206.485 301.509C214.255 309.105 218.142 319.812 218.146 333.632C218.146 347.447 214.259 358.154 206.485 365.754C198.711 373.354 187.509 377.156 172.878 377.161H153.952C153.807 377.161 153.663 377.189 153.529 377.245C153.395 377.301 153.273 377.383 153.17 377.486C153.068 377.589 152.987 377.711 152.932 377.846C152.877 377.98 152.849 378.124 152.85 378.269V418.198C152.841 418.767 152.609 419.31 152.204 419.71C151.798 420.109 151.252 420.333 150.683 420.333ZM152.85 348.167C152.85 348.392 152.894 348.614 152.98 348.822C153.066 349.029 153.193 349.218 153.352 349.377C153.511 349.535 153.7 349.661 153.908 349.746C154.116 349.832 154.339 349.875 154.564 349.875H164.065C176.504 349.875 182.721 344.464 182.717 333.644C182.712 322.824 176.495 317.414 164.065 317.414H154.188C153.833 317.414 153.493 317.555 153.242 317.806C152.991 318.057 152.85 318.397 152.85 318.752V348.167Z" fill="#1296EB"/>
<path d="M290.465 331.744H316.815C317.491 331.744 318.139 332.013 318.617 332.491C319.095 332.969 319.364 333.617 319.364 334.293V417.77C319.364 418.446 319.095 419.094 318.617 419.572C318.139 420.05 317.491 420.319 316.815 420.319H290.465C289.789 420.319 289.141 420.05 288.663 419.572C288.185 419.094 287.917 418.446 287.917 417.77V410.493C281.238 418.896 272.202 423.097 260.809 423.097C254.697 423.163 248.638 421.957 243.017 419.554C237.671 417.243 232.853 413.865 228.858 409.626C224.774 405.286 221.579 400.188 219.453 394.62C217.164 388.613 216.022 382.23 216.088 375.802C216.056 369.636 217.168 363.516 219.37 357.756C221.444 352.239 224.549 347.168 228.52 342.813C232.466 338.537 237.235 335.102 242.54 332.713C248.175 330.189 254.29 328.917 260.465 328.985C271.51 328.985 280.663 332.842 287.923 340.557V334.287C287.925 333.613 288.193 332.967 288.669 332.491C289.146 332.014 289.792 331.746 290.465 331.744ZM248.555 375.783C248.505 381.188 250.581 386.397 254.335 390.286C256.14 392.146 258.309 393.615 260.707 394.6C263.252 395.652 265.982 396.181 268.736 396.155C271.438 396.179 274.117 395.656 276.612 394.62C279.009 393.634 281.179 392.165 282.984 390.306C284.783 388.448 286.245 386.292 287.305 383.933C288.411 381.485 288.976 378.827 288.962 376.14C288.973 373.435 288.415 370.758 287.324 368.283C286.279 365.884 284.816 363.69 283.004 361.802C281.194 359.947 279.026 358.479 276.631 357.488C274.143 356.448 271.471 355.919 268.774 355.933C266.021 355.908 263.29 356.436 260.745 357.488C258.351 358.479 256.183 359.947 254.373 361.802C252.597 363.636 251.164 365.772 250.142 368.111C249.084 370.53 248.544 373.143 248.555 375.783Z" fill="#1296EB"/>
<path d="M368.857 290.623H341.915C340.733 290.623 339.774 291.582 339.774 292.764V419.114C339.774 420.296 340.733 421.255 341.915 421.255H368.857C370.04 421.255 370.998 420.296 370.998 419.114V292.764C370.998 291.582 370.04 290.623 368.857 290.623Z" fill="#1296EB"/>
</svg>
