<svg width="180" height="179" viewBox="0 0 180 179" fill="none" xmlns="http://www.w3.org/2000/svg">
<path d="M54.2068 75.0292C54.2068 59.4336 67.1768 47.7369 81.4437 47.7369C95.7107 47.7369 108.681 60.7332 108.681 75.0292C108.681 76.3288 108.681 77.6285 108.681 78.9281C107.384 89.3252 99.6017 98.4226 89.2257 101.022C87.9287 101.022 84.0377 102.321 81.4437 102.321C67.1768 102.321 54.2068 89.3252 54.2068 75.0292ZM143.5 50.4998C142 46.9998 141.105 45.1376 141.105 45.1376C138.512 38.6395 132.027 30.8417 125.542 25.6432C115.166 17.8454 101 15.2461 84.5 15.2461C73 15.2461 65.8798 17.8454 58.0978 21.7443C58.0978 21.7443 56.8008 21.7443 56.8008 20.4446V16.5457C56.8008 15.2461 55.5038 15.2461 54.2068 15.2461H16.594C15.297 15.2461 14 16.5457 14 17.8454V179H51.6129C52.9098 179 52.9098 177.7 52.9098 176.401V130.913C52.9098 128.314 56.8008 128.314 58.0978 129.614C129.433 153.007 160.361 97.2866 143.5 50.4998Z" fill="#023DB5"/>
<path d="M126.427 98.5192C126.427 111.5 118.615 119.288 102.99 119.288H91.2708C91.2708 119.288 91.2708 119.288 89.9688 119.288C89.9688 119.288 89.9688 119.288 89.9688 117.99C89.9688 117.99 89.9688 117.99 89.9688 116.692V80.3462V79.0481H91.2708H104.292C106.896 79.0481 108.198 79.0481 109.5 79.0481C121.219 80.3462 126.427 86.8365 126.427 98.5192ZM157.677 58.2788C153.771 54.3846 148.562 50.4904 142.052 47.8942C134.24 45.2981 125.125 44 114.708 44H49.6042C49.6042 44 49.6042 44 48.3021 44C48.3021 44 48.3021 44 47 44C47 44 47 44 47 45.2981C47 45.2981 47 45.2981 47 46.5962V179H89.9688V154.337H114.708C132.937 154.337 147.26 149.144 157.677 140.058C168.094 130.971 172 116.692 172 99.8173C172 81.6442 166.792 67.3654 157.677 58.2788Z" fill="#1296EB"/>
</svg>
