<svg width="486" height="156" viewBox="0 0 486 156" fill="none" xmlns="http://www.w3.org/2000/svg">
<path d="M225.531 95.9983C217.657 95.9983 217.657 88.1242 217.657 88.1242L216.978 57.6079C216.97 57.3839 217.008 57.1606 217.088 56.9515C217.169 56.7423 217.291 56.5515 217.447 56.3904C217.603 56.2294 217.789 56.1013 217.996 56.0139C218.202 55.9265 218.424 55.8815 218.648 55.8816L237.17 55.6421C237.695 55.6348 238.196 55.421 238.565 55.0469C238.934 54.6727 239.141 54.1684 239.141 53.643V35.0158C239.141 34.7509 239.088 34.4887 238.986 34.2443C238.884 33.9999 238.734 33.7783 238.546 33.5922C238.357 33.4062 238.133 33.2596 237.888 33.1608C237.642 33.0619 237.379 33.013 237.114 33.0166L217.585 33.2839C217.407 33.2869 217.231 33.2545 217.066 33.1887C216.902 33.1228 216.752 33.0249 216.625 32.9005C216.499 32.7761 216.398 32.6277 216.33 32.4641C216.261 32.3005 216.226 32.1249 216.226 31.9475V8.49223C216.226 7.96202 216.015 7.45353 215.64 7.07861C215.265 6.7037 214.757 6.49308 214.227 6.49308H211.905C211.461 6.49199 211.021 6.58184 210.613 6.7571C210.205 6.93237 209.837 7.18933 209.532 7.51214L186.049 32.3651C185.862 32.5617 185.636 32.7183 185.386 32.8254C185.136 32.9326 184.868 32.9882 184.596 32.9888H152.665C151.963 32.9882 151.273 33.1669 150.66 33.508C150.047 33.8491 149.532 34.3413 149.162 34.9378L131.421 63.6109C131.262 63.8626 131.026 64.0562 130.748 64.1625C130.471 64.2688 130.166 64.2822 129.88 64.2007C129.594 64.1191 129.342 63.947 129.162 63.7102C128.982 63.4733 128.883 63.1845 128.881 62.887V2.04371C128.881 1.51543 128.672 1.00861 128.3 0.634018C127.927 0.259423 127.422 0.0475002 126.893 0.0445571L100.102 7.75651e-06C99.8394 -0.000724839 99.5788 0.0504441 99.3356 0.150583C99.0924 0.250722 98.8714 0.397862 98.6852 0.583573C98.499 0.769285 98.3512 0.989917 98.2504 1.23283C98.1496 1.47574 98.0977 1.73616 98.0977 1.99916V63.0596C98.0977 63.0596 97.6466 63.0596 97.1009 61.2554C96.4949 59.3004 95.7505 57.3911 94.8734 55.5419C92.4733 50.4354 88.6031 44.9002 83.0511 40.8629C75.177 35.1383 66.5456 31.7804 50.8419 32.9888C44.4622 33.5016 38.2036 35.0202 32.2983 37.4883C32.1911 37.5289 32.0757 37.5428 31.962 37.529C31.8482 37.5151 31.7395 37.4737 31.6453 37.4085C31.5511 37.3433 31.4741 37.2562 31.421 37.1547C31.3679 37.0531 31.3403 36.9402 31.3405 36.8256V34.988C31.3412 34.7257 31.2902 34.4658 31.1903 34.2233C31.0905 33.9808 30.9437 33.7604 30.7585 33.5747C30.5733 33.389 30.3533 33.2416 30.1111 33.1411C29.8688 33.0406 29.6092 32.9888 29.3469 32.9888H1.99915C1.46894 32.9888 0.960452 33.1994 0.585538 33.5743C0.210624 33.9493 0 34.4577 0 34.988L0 153.434C0 153.964 0.210624 154.472 0.585538 154.847C0.960452 155.222 1.46894 155.433 1.99915 155.433H27.3589C27.8891 155.433 28.3976 155.222 28.7725 154.847C29.1474 154.472 29.358 153.964 29.358 153.434V119.565C29.3561 119.214 29.4468 118.869 29.621 118.564C29.7952 118.26 30.0467 118.006 30.3501 117.83C30.6535 117.654 30.998 117.561 31.3489 117.56C31.6997 117.56 32.0445 117.652 32.3484 117.827C32.5377 117.939 32.7215 118.089 32.9387 118.201C38.6688 121.063 56.0208 126.348 76.6193 116.051C90.9364 108.89 95.2354 96.7166 96.6665 93.136C97.4628 91.1424 98.0977 91.7048 98.0977 91.7048V120.372C98.0969 120.635 98.148 120.894 98.2478 121.137C98.3477 121.379 98.4944 121.6 98.6796 121.786C98.8648 121.971 99.0848 122.119 99.327 122.219C99.5693 122.32 99.829 122.372 100.091 122.372H127.244C127.508 122.371 127.768 122.318 128.011 122.216C128.254 122.114 128.475 121.965 128.66 121.778C128.845 121.591 128.992 121.369 129.091 121.125C129.19 120.88 129.24 120.619 129.238 120.356L128.937 89.6556C128.935 89.3523 129.032 89.0566 129.214 88.8143C129.397 88.5719 129.654 88.3963 129.946 88.3146C130.238 88.2328 130.549 88.2495 130.83 88.3621C131.112 88.4746 131.349 88.6767 131.504 88.9372L150.794 121.397C150.973 121.694 151.225 121.94 151.526 122.11C151.828 122.281 152.168 122.371 152.515 122.372H184.707C185.07 122.373 185.427 122.276 185.739 122.091C186.052 121.905 186.307 121.638 186.479 121.318C186.651 120.998 186.732 120.637 186.714 120.274C186.697 119.911 186.58 119.56 186.378 119.259L157.978 77.0203C157.762 76.7019 157.643 76.3276 157.636 75.943C157.629 75.5583 157.734 75.18 157.939 74.8541L169.237 56.6668C169.381 56.433 169.583 56.2401 169.823 56.1065C170.063 55.9729 170.333 55.9031 170.607 55.9039H184.223C184.745 55.9038 185.246 56.1085 185.619 56.4739C185.992 56.8394 186.206 57.3365 186.216 57.8585L186.896 91.6158C186.896 91.677 186.896 91.7271 186.896 91.7884C186.751 93.8766 187.486 105.27 192.631 112.47C199.787 122.494 208.97 122.372 208.97 122.372H237.671C238.201 122.372 238.709 122.161 239.084 121.786C239.459 121.411 239.67 120.903 239.67 120.372V98.0086C239.67 97.4784 239.459 96.9699 239.084 96.595C238.709 96.22 238.201 96.0094 237.671 96.0094L225.531 95.9983ZM50.8197 97.6689C39.3705 97.6689 30.0708 88.5418 30.0708 77.2653C30.0708 65.9887 39.3705 56.8561 50.8419 56.8561C62.3134 56.8561 71.6075 65.9943 71.6075 77.2653C71.6075 88.5363 62.3078 97.6689 50.8419 97.6689H50.8197Z" fill="#023DB5"/>
<path d="M293.469 126.604H267.252C266.862 126.604 266.488 126.449 266.212 126.174C265.936 125.898 265.781 125.524 265.781 125.134V14.8133C265.78 14.5506 265.83 14.2901 265.93 14.047C266.029 13.8038 266.176 13.5827 266.361 13.3964C266.547 13.2101 266.767 13.0623 267.009 12.9614C267.252 12.8605 267.512 12.8086 267.775 12.8086H312.881C325.659 12.8086 335.444 16.1275 342.234 22.7654C349.024 29.4032 352.421 38.7604 352.424 50.837C352.424 62.9099 349.027 72.2671 342.234 78.9087C335.44 85.5503 325.65 88.8729 312.865 88.8766H296.326C296.199 88.8766 296.073 88.9017 295.956 88.9505C295.838 88.9992 295.732 89.0707 295.642 89.1607C295.553 89.2508 295.482 89.3577 295.434 89.4752C295.386 89.5927 295.361 89.7186 295.362 89.8456V124.739C295.355 125.236 295.152 125.711 294.798 126.06C294.444 126.409 293.966 126.604 293.469 126.604ZM295.362 63.5392C295.362 63.7356 295.401 63.9301 295.476 64.1116C295.552 64.293 295.662 64.4578 295.801 64.5964C295.94 64.7351 296.106 64.8449 296.287 64.9196C296.469 64.9942 296.664 65.0323 296.86 65.0316H305.163C316.033 65.0316 321.466 60.3038 321.463 50.8482C321.459 41.3926 316.026 36.6648 305.163 36.6648H296.532C296.221 36.6648 295.924 36.788 295.705 37.0073C295.485 37.2266 295.362 37.524 295.362 37.8342V63.5392Z" fill="#1296EB"/>
<path d="M415.623 49.1889H438.65C439.24 49.1889 439.807 49.4236 440.225 49.8413C440.642 50.259 440.877 50.8256 440.877 51.4164V124.366C440.877 124.957 440.642 125.523 440.225 125.941C439.807 126.359 439.24 126.593 438.65 126.593H415.623C415.032 126.593 414.466 126.359 414.048 125.941C413.63 125.523 413.396 124.957 413.396 124.366V118.007C407.56 125.35 399.663 129.021 389.707 129.021C384.365 129.079 379.071 128.024 374.159 125.925C369.487 123.905 365.276 120.953 361.785 117.249C358.216 113.456 355.424 109.001 353.566 104.135C351.566 98.8858 350.568 93.3078 350.626 87.6907C350.597 82.3017 351.57 76.9542 353.493 71.9202C355.306 67.0991 358.02 62.6673 361.49 58.8617C364.938 55.1252 369.105 52.1232 373.741 50.0353C378.666 47.8295 384.01 46.718 389.406 46.7777C399.058 46.7777 407.057 50.1486 413.401 56.8904V51.4108C413.403 50.822 413.637 50.2577 414.054 49.8413C414.47 49.4249 415.034 49.1904 415.623 49.1889ZM378.998 87.674C378.955 92.3975 380.769 96.9491 384.049 100.348C385.627 101.973 387.522 103.257 389.617 104.118C391.841 105.037 394.228 105.5 396.634 105.477C398.995 105.497 401.336 105.041 403.517 104.135C405.612 103.273 407.507 101.99 409.086 100.365C410.657 98.7416 411.935 96.8573 412.861 94.7963C413.828 92.6566 414.322 90.3337 414.309 87.9858C414.319 85.622 413.831 83.2826 412.878 81.1196C411.965 79.0231 410.686 77.1055 409.102 75.4563C407.521 73.8352 405.626 72.5525 403.534 71.6863C401.359 70.7769 399.024 70.3148 396.667 70.3276C394.261 70.3051 391.875 70.7672 389.651 71.6863C387.558 72.5525 385.664 73.8352 384.082 75.4563C382.531 77.0586 381.278 78.9257 380.385 80.9693C379.46 83.0832 378.988 85.3669 378.998 87.674Z" fill="#1296EB"/>
<path d="M484.129 13.2539H460.585C459.551 13.2539 458.714 14.0916 458.714 15.125V125.541C458.714 126.574 459.551 127.412 460.585 127.412H484.129C485.162 127.412 486 126.574 486 125.541V15.125C486 14.0916 485.162 13.2539 484.129 13.2539Z" fill="#1296EB"/>
</svg>
