<?xml version="1.0" encoding="utf-8"?>
<!-- Generator: Adobe Illustrator 22.0.1, SVG Export Plug-In . SVG Version: 6.00 Build 0)  -->
<svg version="1.1" id="Layer_1" xmlns="http://www.w3.org/2000/svg" xmlns:xlink="http://www.w3.org/1999/xlink" x="0px" y="0px"
	 viewBox="0 0 486 156" style="enable-background:new 0 0 486 156;" xml:space="preserve">
<style type="text/css">
	.st0{fill:#008CD1;}
</style>
<g>
	<path class="st0" d="M225.5,96.3c-7.9,0-7.9-7.9-7.9-7.9L217,57.9c0-0.2,0-0.4,0.1-0.7c0.1-0.2,0.2-0.4,0.4-0.6
		c0.2-0.2,0.3-0.3,0.5-0.4c0.2-0.1,0.4-0.1,0.7-0.1l18.5-0.2c0.5,0,1-0.2,1.4-0.6c0.4-0.4,0.6-0.9,0.6-1.4V35.3
		c0-0.3-0.1-0.5-0.2-0.8c-0.1-0.2-0.3-0.5-0.4-0.7c-0.2-0.2-0.4-0.3-0.7-0.4c-0.2-0.1-0.5-0.1-0.8-0.1l-19.5,0.3
		c-0.2,0-0.4,0-0.5-0.1c-0.2-0.1-0.3-0.2-0.4-0.3c-0.1-0.1-0.2-0.3-0.3-0.4c-0.1-0.2-0.1-0.3-0.1-0.5V8.8c0-0.5-0.2-1-0.6-1.4
		c-0.4-0.4-0.9-0.6-1.4-0.6h-2.3c-0.4,0-0.9,0.1-1.3,0.3c-0.4,0.2-0.8,0.4-1.1,0.8L186,32.6c-0.2,0.2-0.4,0.4-0.7,0.5
		c-0.3,0.1-0.5,0.2-0.8,0.2h-31.9c-0.7,0-1.4,0.2-2,0.5c-0.6,0.3-1.1,0.8-1.5,1.4l-17.7,28.7c-0.2,0.3-0.4,0.4-0.7,0.6
		c-0.3,0.1-0.6,0.1-0.9,0c-0.3-0.1-0.5-0.3-0.7-0.5c-0.2-0.2-0.3-0.5-0.3-0.8V2.3c0-0.5-0.2-1-0.6-1.4c-0.4-0.4-0.9-0.6-1.4-0.6
		l-26.8,0c-0.3,0-0.5,0.1-0.8,0.2c-0.2,0.1-0.5,0.2-0.7,0.4c-0.2,0.2-0.3,0.4-0.4,0.6c-0.1,0.2-0.2,0.5-0.2,0.8v61.1
		c0,0-0.5,0-1-1.8c-0.6-2-1.4-3.9-2.2-5.7c-2.4-5.1-6.3-10.6-11.8-14.7c-7.9-5.7-16.5-9.1-32.2-7.9c-6.4,0.5-12.6,2-18.5,4.5
		c-0.1,0-0.2,0.1-0.3,0c-0.1,0-0.2-0.1-0.3-0.1s-0.2-0.2-0.2-0.3c-0.1-0.1-0.1-0.2-0.1-0.3v-1.8c0-0.3-0.1-0.5-0.2-0.8
		c-0.1-0.2-0.2-0.5-0.4-0.6c-0.2-0.2-0.4-0.3-0.6-0.4c-0.2-0.1-0.5-0.2-0.8-0.2H2c-0.5,0-1,0.2-1.4,0.6C0.2,34.2,0,34.7,0,35.3
		v118.4c0,0.5,0.2,1,0.6,1.4s0.9,0.6,1.4,0.6h25.4c0.5,0,1-0.2,1.4-0.6c0.4-0.4,0.6-0.9,0.6-1.4v-33.9c0-0.4,0.1-0.7,0.3-1
		c0.2-0.3,0.4-0.6,0.7-0.7c0.3-0.2,0.6-0.3,1-0.3c0.4,0,0.7,0.1,1,0.3c0.2,0.1,0.4,0.3,0.6,0.4c5.7,2.9,23.1,8.1,43.7-2.1
		c14.3-7.2,18.6-19.3,20-22.9c0.8-2,1.4-1.4,1.4-1.4v28.7c0,0.3,0.1,0.5,0.2,0.8c0.1,0.2,0.2,0.5,0.4,0.6c0.2,0.2,0.4,0.3,0.6,0.4
		c0.2,0.1,0.5,0.2,0.8,0.2h27.2c0.3,0,0.5-0.1,0.8-0.2c0.2-0.1,0.5-0.3,0.6-0.4s0.3-0.4,0.4-0.7c0.1-0.2,0.1-0.5,0.1-0.8l-0.3-30.7
		c0-0.3,0.1-0.6,0.3-0.8c0.2-0.2,0.4-0.4,0.7-0.5c0.3-0.1,0.6-0.1,0.9,0c0.3,0.1,0.5,0.3,0.7,0.6l19.3,32.5c0.2,0.3,0.4,0.5,0.7,0.7
		c0.3,0.2,0.6,0.3,1,0.3h32.2c0.4,0,0.7-0.1,1-0.3c0.3-0.2,0.6-0.5,0.7-0.8s0.3-0.7,0.2-1c0-0.4-0.1-0.7-0.3-1L158,77.3
		c-0.2-0.3-0.3-0.7-0.3-1.1c0-0.4,0.1-0.8,0.3-1.1L169.2,57c0.1-0.2,0.3-0.4,0.6-0.6c0.2-0.1,0.5-0.2,0.8-0.2h13.6
		c0.5,0,1,0.2,1.4,0.6s0.6,0.9,0.6,1.4l0.7,33.8c0,0.1,0,0.1,0,0.2c-0.1,2.1,0.6,13.5,5.7,20.7c7.2,10,16.3,9.9,16.3,9.9h28.7
		c0.5,0,1-0.2,1.4-0.6s0.6-0.9,0.6-1.4V98.3c0-0.5-0.2-1-0.6-1.4c-0.4-0.4-0.9-0.6-1.4-0.6L225.5,96.3z M50.8,98
		c-11.4,0-20.7-9.1-20.7-20.4c0-11.3,9.3-20.4,20.8-20.4c11.5,0,20.8,9.1,20.8,20.4S62.3,98,50.8,98L50.8,98z"/>
	<path class="st0" d="M293.5,126.9h-26.2c-0.4,0-0.8-0.2-1-0.4c-0.3-0.3-0.4-0.6-0.4-1V15.1c0-0.3,0-0.5,0.1-0.8
		c0.1-0.2,0.2-0.5,0.4-0.7c0.2-0.2,0.4-0.3,0.6-0.4c0.2-0.1,0.5-0.2,0.8-0.2h45.1c12.8,0,22.6,3.3,29.4,10
		c6.8,6.6,10.2,16,10.2,28.1c0,12.1-3.4,21.4-10.2,28.1c-6.8,6.6-16.6,10-29.4,10h-16.5c-0.1,0-0.3,0-0.4,0.1
		c-0.1,0-0.2,0.1-0.3,0.2c-0.1,0.1-0.2,0.2-0.2,0.3s-0.1,0.2-0.1,0.4V125c0,0.5-0.2,1-0.6,1.3S294,126.9,293.5,126.9z M295.4,63.8
		c0,0.2,0,0.4,0.1,0.6c0.1,0.2,0.2,0.3,0.3,0.5c0.1,0.1,0.3,0.2,0.5,0.3c0.2,0.1,0.4,0.1,0.6,0.1h8.3c10.9,0,16.3-4.7,16.3-14.2
		c0-9.5-5.4-14.2-16.3-14.2h-8.6c-0.3,0-0.6,0.1-0.8,0.3c-0.2,0.2-0.3,0.5-0.3,0.8V63.8z"/>
	<path class="st0" d="M415.6,49.5h23c0.6,0,1.2,0.2,1.6,0.7c0.4,0.4,0.7,1,0.7,1.6v72.9c0,0.6-0.2,1.2-0.7,1.6
		c-0.4,0.4-1,0.7-1.6,0.7h-23c-0.6,0-1.2-0.2-1.6-0.7s-0.7-1-0.7-1.6v-6.4c-5.8,7.3-13.7,11-23.7,11c-5.3,0.1-10.6-1-15.5-3.1
		c-4.7-2-8.9-5-12.4-8.7c-3.6-3.8-6.4-8.2-8.2-13.1c-2-5.2-3-10.8-2.9-16.4c0-5.4,0.9-10.7,2.9-15.8c1.8-4.8,4.5-9.3,8-13.1
		c3.4-3.7,7.6-6.7,12.3-8.8c4.9-2.2,10.3-3.3,15.7-3.3c9.7,0,17.7,3.4,24,10.1v-5.5c0-0.6,0.2-1.2,0.7-1.6
		C414.5,49.7,415,49.5,415.6,49.5z M379,88c0,4.7,1.8,9.3,5.1,12.7c1.6,1.6,3.5,2.9,5.6,3.8c2.2,0.9,4.6,1.4,7,1.4
		c2.4,0,4.7-0.4,6.9-1.3c2.1-0.9,4-2.1,5.6-3.8c1.6-1.6,2.8-3.5,3.8-5.6c1-2.1,1.5-4.5,1.4-6.8c0-2.4-0.5-4.7-1.4-6.9
		c-0.9-2.1-2.2-4-3.8-5.7c-1.6-1.6-3.5-2.9-5.6-3.8c-2.2-0.9-4.5-1.4-6.9-1.4c-2.4,0-4.8,0.4-7,1.4c-2.1,0.9-4,2.1-5.6,3.8
		c-1.6,1.6-2.8,3.5-3.7,5.5C379.5,83.4,379,85.6,379,88z"/>
	<path class="st0" d="M484.1,13.5h-23.5c-1,0-1.9,0.8-1.9,1.9v110.4c0,1,0.8,1.9,1.9,1.9h23.5c1,0,1.9-0.8,1.9-1.9V15.4
		C486,14.4,485.2,13.5,484.1,13.5z"/>
</g>
</svg>
